<?xml version="1.0" encoding="utf-8"?>
<!-- Generator: Adobe Illustrator 25.1.0, SVG Export Plug-In . SVG Version: 6.00 Build 0)  -->
<svg version="1.1" id="图层_1" xmlns="http://www.w3.org/2000/svg" xmlns:xlink="http://www.w3.org/1999/xlink" x="0px" y="0px"
	 viewBox="0 0 50 50" style="enable-background:new 0 0 50 50;" xml:space="preserve">
<style type="text/css">
	.st0{fill:#FFFFFF;}
	.st1{fill:#79BEEA;}
	.st2{fill:#B6BEBC;}
</style>
<g>
	<path class="st0" d="M24.99,50.13c-8.11,0-16.21-0.01-24.32,0.02C0.08,50.15,0,50,0,49.45C0.02,33.24,0.02,17.03,0,0.81
		c0-0.59,0.15-0.67,0.69-0.67c16.21,0.02,32.43,0.02,48.64,0c0.59,0,0.67,0.15,0.67,0.69c-0.02,16.21-0.02,32.42,0,48.64
		c0,0.59-0.15,0.67-0.69,0.67C41.2,50.12,33.1,50.13,24.99,50.13z M2.71,14.11c-0.11,0.57-0.19,1.13-0.19,1.72
		c0.01,6.32-0.01,12.65,0.02,18.97c0,1.11,0.19,2.22,0.29,3.34c0.22,2.89,1.21,5.41,3.53,7.29c0.21,0.17,0.37,0.47,0.7,0.32
		c0.36-0.16,0.25-0.52,0.25-0.81c0-3.93-0.01-7.85,0.01-11.78c0-0.68-0.3-1.53,0.16-2c0.43-0.43,1.27-0.1,1.92-0.15
		c0.03,0,0.06,0,0.08,0c0.51,0.04,0.69-0.21,0.68-0.7c-0.02-0.72,0-1.44-0.02-2.16c-0.07-2.61,0.19-5.17,1.21-7.61
		c2.19-5.21,7.62-8.85,13.25-8.95c3.58-0.07,6.76,1.01,9.61,3.07c2.55,1.84,4.19,4.36,5.17,7.37c0.72,2.21,0.64,4.46,0.65,6.72
		c0,2.14,0,2.17,2.15,2.14c0.69-0.01,0.82,0.23,0.82,0.85c-0.02,4.37-0.01,8.74-0.01,13.11c0,0.87,0.27,1.03,1.02,0.59
		c0.18-0.11,0.34-0.28,0.47-0.45c0.34-0.44,0.7-0.9,1.06-1.31c1.22-1.42,1.89-3.06,1.91-4.87c0.06-9.13,0.05-18.25,0.04-27.38
		c0-0.59-0.02-1.26-0.27-1.77c-0.55-1.12-1.09-2.25-1.8-3.32c-0.79-1.2-2-1.87-3.06-2.55c-1.08-0.7-2.6-0.97-4.02-0.98
		c-1.17-0.31-2.38-0.26-3.56-0.28c-5.25-0.06-10.51-0.03-15.76,0c-1.68,0.01-3.37-0.17-5.04,0.15c-0.8-0.07-1.59,0.04-2.39,0.13
		C9.51,3.07,7.65,3.77,6.07,5.17C3.36,7.55,2.67,10.69,2.71,14.11z M25.08,30.9C25.08,30.9,25.08,30.9,25.08,30.9
		c3.04,0.01,6.09-0.01,9.13,0.02c0.7,0.01,0.91-0.23,0.88-0.9c-0.05-1.3-0.03-2.6-0.02-3.9c0.03-2.87-1.19-5.26-3.25-7.07
		c-2.61-2.29-5.72-3.2-9.21-2.29c-3.76,0.98-6.01,3.48-7.16,7.07c-0.65,2.02-0.25,4.12-0.37,6.18c-0.04,0.67,0.16,0.91,0.87,0.9
		C19,30.87,22.04,30.9,25.08,30.9z"/>
	<path class="st1" d="M38.33,2.81c1.42,0.02,2.94,0.28,4.02,0.98c1.05,0.69,2.26,1.35,3.06,2.55c0.71,1.06,1.24,2.19,1.8,3.32
		c0.25,0.51,0.27,1.17,0.27,1.77c0.01,9.13,0.03,18.25-0.04,27.38c-0.01,1.8-0.68,3.45-1.91,4.87c-0.36,0.42-0.71,0.87-1.06,1.31
		c-0.13,0.17-0.29,0.34-0.47,0.45c-0.76,0.44-1.02,0.29-1.02-0.59c0-4.37-0.01-8.74,0.01-13.11c0-0.62-0.12-0.86-0.82-0.85
		c-2.15,0.03-2.14,0-2.15-2.14c0-2.26,0.08-4.51-0.65-6.72c-0.98-3-2.63-5.52-5.17-7.37c-2.85-2.06-6.03-3.13-9.61-3.07
		c-5.63,0.11-11.06,3.74-13.25,8.95c-1.03,2.45-1.29,5-1.21,7.61c0.02,0.72,0,1.44,0.02,2.16c0.01,0.49-0.17,0.74-0.68,0.7
		c-0.03,0-0.06,0-0.08,0c-0.65,0.05-1.49-0.28-1.92,0.15c-0.46,0.47-0.16,1.32-0.16,2C7.3,37.09,7.31,41.01,7.3,44.94
		c0,0.29,0.11,0.64-0.25,0.81c-0.33,0.15-0.49-0.15-0.7-0.32c-2.32-1.88-3.3-4.4-3.53-7.29c0.01-7.6,0.02-15.21,0.02-22.81
		c0-0.4,0.11-0.83-0.13-1.21c-0.04-3.42,0.65-6.56,3.36-8.95c1.58-1.39,3.44-2.1,5.51-2.35c0.8-0.1,1.58-0.2,2.39-0.13
		c0.49,0.26,1.03,0.14,1.54,0.14C23.12,2.82,30.72,2.81,38.33,2.81z"/>
	<path class="st1" d="M25.08,30.9c-3.04,0-6.09-0.02-9.13,0.02c-0.71,0.01-0.91-0.23-0.87-0.9c0.12-2.06-0.28-4.16,0.37-6.18
		c1.15-3.59,3.39-6.09,7.16-7.07c3.5-0.91,6.61-0.01,9.21,2.29c2.06,1.81,3.27,4.2,3.25,7.07c-0.01,1.3-0.03,2.6,0.02,3.9
		c0.02,0.68-0.18,0.91-0.88,0.9C31.17,30.88,28.13,30.9,25.08,30.9C25.08,30.9,25.08,30.9,25.08,30.9z"/>
	<path class="st2" d="M38.33,2.81c-7.61,0.01-15.21,0.02-22.82,0.01c-0.51,0-1.05,0.13-1.54-0.14c1.67-0.32,3.36-0.15,5.04-0.15
		c5.25-0.03,10.51-0.06,15.76,0C35.95,2.54,37.16,2.5,38.33,2.81z"/>
	<path class="st2" d="M2.71,14.11c0.24,0.38,0.13,0.81,0.13,1.21c0,7.6-0.01,15.21-0.02,22.81c-0.1-1.11-0.29-2.22-0.29-3.34
		c-0.03-6.32-0.01-12.65-0.02-18.97C2.52,15.25,2.6,14.68,2.71,14.11z"/>
</g>
</svg>
